<svg width="180" height="180" viewBox="0 0 180 180" fill="none" xmlns="http://www.w3.org/2000/svg">
  <rect width="180" height="180" rx="40" fill="#DF5C46"/>
  <path
    d="M57 142C51.4772 142 47 137.523 47 132V48C47 42.4772 51.4772 38 57 38H95.4928C98.6776 38 101.732 39.2649 103.985 41.5175L138.482 76.0147C140.735 78.2673 142 81.3224 142 84.5072V132C142 137.523 137.523 142 132 142H57Z"
    stroke="white"
    stroke-width="12"
    stroke-linecap="round"
    stroke-linejoin="round"
  />
  <path
    d="M97 38V70C97 74.4183 100.582 78 105 78H137"
    stroke="white"
    stroke-width="12"
    stroke-linecap="round"
    stroke-linejoin="round"
  />
  <path
    d="M72 95H85"
    stroke="white"
    stroke-width="12"
    stroke-linecap="round"
  />
  <path
    d="M72 112H117"
    stroke="white"
    stroke-width="12"
    stroke-linecap="round"
  />
  <path
    d="M72 129H117"
    stroke="white"
    stroke-width="12"
    stroke-linecap="round"
  />
</svg>
